<svg width="100%" height="100%" viewBox="0 0 1024 1024" version="1.1" xmlns="http://www.w3.org/2000/svg" xmlns:xlink="http://www.w3.org/1999/xlink" xml:space="preserve" xmlns:serif="http://www.serif.com/" style="fill-rule:evenodd;clip-rule:evenodd;stroke-linecap:round;stroke-linejoin:round;stroke-miterlimit:1.5;">
    <defs>
        <linearGradient id="_Linear1" x1="0" y1="0" x2="1" y2="1" gradientUnits="userSpaceOnUse" gradientTransform="matrix(1024,1024,-1024,1024,0,0)">
            <stop offset="0" style="stop-color:#3B82F6;stop-opacity:1"/> <stop offset="1" style="stop-color:#10B981;stop-opacity:1"/> </linearGradient>
    </defs>
    <rect x="0" y="0" width="1024" height="1024" rx="200" ry="200" style="fill:url(#_Linear1);"/>

    <g transform="matrix(1,0,0,1,128,128)">
        
        <path d="M72.015,350.562C72.015,334.619 84.945,321.688 100.888,321.688L309.434,321.688C325.378,321.688 338.307,334.619 338.307,350.562L338.307,595.669C338.307,611.612 325.378,624.542 309.434,624.542L100.888,624.542C84.945,624.542 72.015,611.612 72.015,595.669L72.015,350.562Z" style="fill:#fff;fill-opacity:0.6;"/>
        
        <circle cx="512" cy="768" r="64" style="fill:#fff;"/>

        <rect x="128" y="704" width="768" height="32" rx="16" ry="16" transform="matrix(0.965926,-0.258819,0.258819,0.965926,-174.611,164.73)" style="fill:#fff;"/>

        <g transform="matrix(1,0,0,1,130.669,-150.36)">
            <path d="M608,309.333L608,128C608,92.68 636.68,64 672,64L853.333,64C871.012,64 885.333,78.322 885.333,96L885.333,160C885.333,177.678 871.012,192 853.333,192L762.618,192L915.986,345.368C928.483,357.866 928.483,378.134 915.986,390.631L870.631,435.986C858.134,448.483 837.866,448.483 825.368,435.986L672,282.618L672,309.333C672,327.012 657.678,341.333 640,341.333L640,341.333C622.322,341.333 608,327.012 608,309.333Z" style="fill:#fff;"/>
        </g>
        
        <g transform="matrix(0.819152,-0.573576,0.573576,0.819152,437.491,373.963)">
            <circle cx="64" cy="64" r="32" style="fill:#fff;"/>
            <circle cx="160" cy="64" r="32" style="fill:#fff;fill-opacity:0.8;"/>
            <circle cx="64" cy="160" r="32" style="fill:#fff;fill-opacity:0.8;"/>
            <circle cx="160" cy="160" r="32" style="fill:#fff;fill-opacity:0.6;"/>
        </g>
    </g>
</svg>